<svg xmlns="http://www.w3.org/2000/svg" width="32" height="32" viewBox="0 0 32 32">
  <defs>
    <linearGradient id="g" x1="0" y1="0" x2="1" y2="1">
      <stop offset="0" stop-color="#0A5C44"/>
      <stop offset="0.38" stop-color="#0A5C44"/>
      <stop offset="0.78" stop-color="#7FBF52"/>
      <stop offset="1" stop-color="#C6F24E"/>
    </linearGradient>
  </defs>
  <rect width="32" height="32" rx="7" fill="url(#g)"/>
  <g transform="translate(6.5 6.5) scale(0.79)" fill="none" stroke="#F7F6F1" stroke-width="2" stroke-linecap="round" stroke-linejoin="round">
    <path d="M7 20h10"/>
    <path d="M10 20c5.5-2.5.8-6.4 3-10"/>
    <path d="M9.5 9.4c1.1.8 1.8 2.2 2.3 3.7-2 .4-3.5.4-4.8-.3-1.2-.6-2.3-1.9-3-4.2 2.8-.5 4.4 0 5.5.8z"/>
    <path d="M14.1 6c-.9.5-2.1 1.5-2.7 3.5-.3 1.1-.2 2.4.3 3.5 1.7-.5 3-1 3.7-2.2.5-.9.7-2.3.5-3.6 0-1.8-.6-3-.6-3z"/>
  </g>
</svg>
